<svg xmlns="http://www.w3.org/2000/svg" width="172" height="137" xml:space="preserve"><path fill="#1B75BB" d="M154.367 78.057s6.712 5.401 0 13.553l-.004.001-15.471 18.996c-3.807 4.627-10.646 5.288-15.271 1.477-4.625-3.809-5.288-10.646-1.478-15.271l24.184-29.521 8.04 10.765z"/><path fill="#17447A" d="m24.244 68.957 24.108-29.505c3.811-4.622 3.15-11.461-1.475-15.27-4.625-3.811-11.465-3.15-15.272 1.477L16.134 44.653l-.002.002c-6.713 8.151 0 13.553 0 13.553l8.112 10.749z"/><path fill="#1B75BB" d="M16.132 58.208s-6.713-5.401 0-13.553l.002-.002L2.476 61.237a10.845 10.845 0 0 0 0 13.794l47.181 57.281a10.825 10.825 0 0 0 8.382 3.953c2.427 0 4.87-.812 6.891-2.476 4.623-3.809 5.286-10.646 1.475-15.271L35.477 80.967 16.132 58.208z"/><circle fill="#17447A" cx="58.028" cy="10.853" r="10.853"/><path fill="#17447A" d="M154.367 78.057s6.712 5.401 0 13.553l-.004.001 13.66-16.579a10.845 10.845 0 0 0 0-13.794L120.842 3.952A10.837 10.837 0 0 0 112.458 0a10.8 10.8 0 0 0-6.89 2.477c-4.625 3.81-5.284 10.646-1.478 15.27L135.023 55.3l19.344 22.757z"/><circle fill="#1B75BB" cx="112.47" cy="125.412" r="10.853"/><path fill="#1B75BB" d="M85.249 114.359c-5.989 0-10.848-4.857-10.848-10.85V34.731c0-5.991 4.858-10.848 10.848-10.848 5.991 0 10.848 4.856 10.848 10.848v68.778c-.001 5.993-4.857 10.85-10.848 10.85z"/></svg>